<svg width="26" height="26" viewBox="0 0 26 26" fill="none" xmlns="http://www.w3.org/2000/svg">
<path d="M18.2672 0.523438C16.4985 0.523438 14.7298 1.19469 13.3856 2.53882L0.77456 15.1499C0.684587 15.2363 0.612755 15.3398 0.563271 15.4543C0.513786 15.5687 0.487645 15.692 0.486377 15.8167C0.485108 15.9414 0.50874 16.0651 0.555886 16.1806C0.603032 16.2961 0.672745 16.401 0.760943 16.4892C0.849141 16.5774 0.954051 16.6471 1.06953 16.6943C1.18501 16.7414 1.30873 16.765 1.43345 16.7638C1.55818 16.7625 1.6814 16.7364 1.79589 16.6869C1.91039 16.6374 2.01386 16.5656 2.10024 16.4756L14.7113 3.8645C16.6831 1.89275 19.8514 1.89275 21.8231 3.8645C23.7949 5.83625 23.7949 9.00457 21.8231 10.9763L9.92129 22.8782C8.89898 23.9005 7.26928 23.9005 6.24697 22.8782C5.22466 21.8559 5.22466 20.2262 6.24697 19.2039L15.8502 9.60059C15.9402 9.5142 16.012 9.41073 16.0615 9.29623C16.111 9.18174 16.1372 9.05852 16.1384 8.9338C16.1397 8.80907 16.1161 8.68535 16.0689 8.56987C16.0218 8.45439 15.9521 8.34948 15.8639 8.26129C15.7757 8.17309 15.6708 8.10338 15.5553 8.05623C15.4398 8.00908 15.3161 7.98545 15.1913 7.98672C15.0666 7.98799 14.9434 8.01413 14.8289 8.06361C14.7144 8.1131 14.6109 8.18493 14.5246 8.2749L4.92129 17.8782C3.18235 19.6171 3.18235 22.4649 4.92129 24.2039C6.66023 25.9428 9.50803 25.9428 11.247 24.2039L23.1488 12.302C25.8371 9.61375 25.8371 5.22707 23.1488 2.53882C21.8047 1.19469 20.036 0.523438 18.2672 0.523438Z" fill="#37085B"/>
</svg>
