<svg width="26" height="26" viewBox="0 0 26 26" fill="none" xmlns="http://www.w3.org/2000/svg">
<path d="M13 0.5C6.10754 0.5 0.5 6.10754 0.5 13C0.5 19.8925 6.10754 25.5 13 25.5C19.8925 25.5 25.5 19.8925 25.5 13C25.5 6.10754 19.8925 0.5 13 0.5ZM13 2.375C18.8791 2.375 23.625 7.12087 23.625 13C23.625 18.8791 18.8791 23.625 13 23.625C7.12086 23.625 2.375 18.8791 2.375 13C2.375 7.12087 7.12086 2.375 13 2.375ZM12.9853 6.73657C12.7369 6.74045 12.5002 6.84278 12.3272 7.02108C12.1541 7.19938 12.0589 7.43907 12.0625 7.6875V12.0625H7.6875C7.56327 12.0607 7.43993 12.0837 7.32465 12.13C7.20936 12.1763 7.10444 12.2451 7.01597 12.3323C6.92749 12.4196 6.85724 12.5235 6.80929 12.6381C6.76134 12.7528 6.73665 12.8758 6.73665 13C6.73665 13.1242 6.76134 13.2472 6.80929 13.3619C6.85724 13.4765 6.92749 13.5804 7.01597 13.6676C7.10444 13.7549 7.20936 13.8237 7.32465 13.87C7.43993 13.9163 7.56327 13.9393 7.6875 13.9375H12.0625V18.3125C12.0607 18.4367 12.0837 18.5601 12.13 18.6754C12.1763 18.7906 12.2451 18.8956 12.3323 18.984C12.4196 19.0725 12.5235 19.1428 12.6381 19.1907C12.7528 19.2387 12.8758 19.2633 13 19.2633C13.1242 19.2633 13.2472 19.2387 13.3619 19.1907C13.4765 19.1428 13.5804 19.0725 13.6676 18.984C13.7549 18.8956 13.8237 18.7906 13.87 18.6754C13.9163 18.5601 13.9393 18.4367 13.9375 18.3125V13.9375H18.3125C18.4367 13.9393 18.5601 13.9163 18.6754 13.87C18.7906 13.8237 18.8956 13.7549 18.984 13.6676C19.0725 13.5804 19.1428 13.4765 19.1907 13.3619C19.2387 13.2472 19.2633 13.1242 19.2633 13C19.2633 12.8758 19.2387 12.7528 19.1907 12.6381C19.1428 12.5235 19.0725 12.4196 18.984 12.3323C18.8956 12.2451 18.7906 12.1763 18.6754 12.13C18.5601 12.0837 18.4367 12.0607 18.3125 12.0625H13.9375V7.6875C13.9393 7.56202 13.9159 7.43746 13.8687 7.32119C13.8214 7.20493 13.7513 7.09933 13.6626 7.01065C13.5738 6.92197 13.4681 6.85202 13.3517 6.80494C13.2354 6.75786 13.1108 6.73461 12.9853 6.73657Z" fill="white"/>
</svg>
