<svg width="38" height="38" viewBox="0 0 38 38" fill="none" xmlns="http://www.w3.org/2000/svg">
<path d="M13.4773 31.7031C13.5011 30.7056 13.5597 29.45 13.699 28.6568C13.851 27.7986 14.1455 26.7662 14.3719 26.0395C14.5492 25.4695 14.3925 24.8488 13.9713 24.4261L10.4817 20.9158C11.7594 18.4902 13.2478 16.5474 14.9023 14.9023C16.5474 13.2478 18.4902 11.7594 20.9158 10.4817L24.4277 13.9713C24.852 14.3925 25.4711 14.5492 26.0411 14.3719C26.7663 14.1471 27.8002 13.851 28.6583 13.699C29.4516 13.5597 30.7056 13.5011 31.7047 13.4773C32.566 13.4567 33.25 12.7538 33.25 11.8908V6.33333C33.25 5.63983 32.7307 4.75 31.6667 4.75C24.4799 4.75 17.6162 7.66333 12.6128 12.6128C7.66333 17.6162 4.75 24.4799 4.75 31.6667C4.75 32.7307 5.63983 33.25 6.33333 33.25H11.8908C12.7538 33.25 13.4567 32.566 13.4773 31.7031Z" fill="#84B6BA"/>
</svg>
