<svg id="Layer_1" data-name="Layer 1" xmlns="http://www.w3.org/2000/svg" viewBox="0 0 349.28 92.27"><defs><style>.cls-1{fill:#2a327f;}</style></defs><path class="cls-1" d="M78.13,231.92c5.11,0,9.33-1.54,12.09-4.38l-4.35-3.37a10.12,10.12,0,0,1-7.36,2.91c-5.48,0-9.37-3.22-9.37-7.85s3.89-7.85,9.37-7.85a10.25,10.25,0,0,1,7.36,2.87l4.35-3.36c-2.76-2.81-7-4.35-12-4.35-9.11,0-15.89,5.29-15.89,12.69S69.06,231.92,78.13,231.92Z" transform="translate(-61.93 -139.65)"/><path class="cls-1" d="M102.17,231.78c7.16,0,12.34-4,12.34-9.71s-5.18-9.71-12.34-9.71-12.37,4-12.37,9.71S95,231.78,102.17,231.78Zm0-4.49c-3.26,0-5.77-2-5.77-5.22s2.51-5.22,5.77-5.22,5.73,2,5.73,5.22S105.44,227.29,102.17,227.29Z" transform="translate(-61.93 -139.65)"/><path class="cls-1" d="M130.46,212.36a10.92,10.92,0,0,0-7.45,2.49v-2.21h-6.23V231.5h6.53v-9.32c0-3.48,2.25-5.09,5.39-5.09,2.89,0,4.56,1.4,4.56,4.45v10h6.52V220.7C139.78,215,135.77,212.36,130.46,212.36Z" transform="translate(-61.93 -139.65)"/><path class="cls-1" d="M151.18,231.78c6.73,0,10.62-2.49,10.62-6,0-7.44-13.59-4.32-13.59-7.54,0-1,1.25-1.75,4.18-1.75a14.92,14.92,0,0,1,6.48,1.4l2.18-3.89a21.4,21.4,0,0,0-8.66-1.65c-6.57,0-10.41,2.52-10.41,6.1,0,7.54,13.59,4.38,13.59,7.47,0,1-1.13,1.71-4.14,1.71a17.61,17.61,0,0,1-7.82-1.82l-2.18,3.93A22.41,22.41,0,0,0,151.18,231.78Z" transform="translate(-61.93 -139.65)"/><path class="cls-1" d="M179.88,212.64V222c0,3.48-2.18,5.09-5.19,5.09s-4.56-1.4-4.56-4.56v-9.85h-6.52V223.3c0,5.82,4,8.48,9.62,8.48a10,10,0,0,0,7-2.52v2.24h6.19V212.64Z" transform="translate(-61.93 -139.65)"/><path class="cls-1" d="M190.35,231.5h6.53v-26h-6.53Z" transform="translate(-61.93 -139.65)"/><path class="cls-1" d="M215.23,226.73a4.94,4.94,0,0,1-2.63.7c-1.76,0-2.8-.87-2.8-2.49v-7.67h5.6v-4.21h-5.6v-4.59h-6.53v4.59H199.8v4.21h3.47V225c0,4.49,3.1,6.77,8.41,6.77a10.69,10.69,0,0,0,5.31-1.19Z" transform="translate(-61.93 -139.65)"/><path class="cls-1" d="M227.64,212.36a19.88,19.88,0,0,0-9.71,2.28l2.34,3.82a12.28,12.28,0,0,1,6.49-1.75c3.51,0,5.18,1.36,5.18,3.71h-5.18c-6.86,0-9.66,2.32-9.66,5.65s3.13,5.71,8.4,5.71c3.31,0,5.65-.91,6.86-2.63v2.35h6.11V220.74C238.47,215,234.49,212.36,227.64,212.36Zm-.51,15.74c-2.3,0-3.68-.91-3.68-2.28s1-2.21,4-2.21h4.47v1.93C231.19,227.26,229.31,228.1,227.13,228.1Z" transform="translate(-61.93 -139.65)"/><path class="cls-1" d="M256,212.36a10.92,10.92,0,0,0-7.45,2.49v-2.21h-6.23V231.5h6.52v-9.32c0-3.48,2.26-5.09,5.4-5.09,2.89,0,4.56,1.4,4.56,4.45v10h6.52V220.7C265.28,215,261.27,212.36,256,212.36Z" transform="translate(-61.93 -139.65)"/><path class="cls-1" d="M281.86,226.73a4.94,4.94,0,0,1-2.63.7c-1.76,0-2.81-.87-2.81-2.49v-7.67H282v-4.21h-5.61v-4.59H269.9v4.59h-3.47v4.21h3.47V225c0,4.49,3.1,6.77,8.41,6.77a10.69,10.69,0,0,0,5.31-1.19Z" transform="translate(-61.93 -139.65)"/><path class="cls-1" d="M308.07,207H295.4V231.5h6.78v-6.77h5.89c7.83,0,12.72-3.4,12.72-8.87S315.9,207,308.07,207Zm-.37,13.15h-5.52v-8.52h5.52c4.14,0,6.23,1.58,6.23,4.27S311.84,220.11,307.7,220.11Z" transform="translate(-61.93 -139.65)"/><path class="cls-1" d="M333.74,231.78c7.15,0,12.34-4,12.34-9.71s-5.19-9.71-12.34-9.71-12.38,4-12.38,9.71S326.59,231.78,333.74,231.78Zm0-4.49c-3.26,0-5.77-2-5.77-5.22s2.51-5.22,5.77-5.22,5.73,2,5.73,5.22S337,227.29,333.74,227.29Z" transform="translate(-61.93 -139.65)"/><path class="cls-1" d="M354.58,215.13v-2.49h-6.23V231.5h6.52v-8.9c0-3.62,2.38-5.26,6-5.26.5,0,.92,0,1.47.07v-5C358.84,212.36,356.17,213.31,354.58,215.13Z" transform="translate(-61.93 -139.65)"/><path class="cls-1" d="M377.64,226.73a5,5,0,0,1-2.64.7c-1.76,0-2.8-.87-2.8-2.49v-7.67h5.6v-4.21h-5.6v-4.59h-6.52v4.59H362.2v4.21h3.48V225c0,4.49,3.09,6.77,8.4,6.77a10.67,10.67,0,0,0,5.31-1.19Z" transform="translate(-61.93 -139.65)"/><path class="cls-1" d="M390,212.36a19.82,19.82,0,0,0-9.7,2.28l2.34,3.82a12.24,12.24,0,0,1,6.48-1.75c3.51,0,5.19,1.36,5.19,3.71h-5.19c-6.86,0-9.66,2.32-9.66,5.65s3.14,5.71,8.41,5.71c3.3,0,5.64-.91,6.85-2.63v2.35h6.11V220.74C400.87,215,396.9,212.36,390,212.36Zm-.5,15.74c-2.3,0-3.68-.91-3.68-2.28s1-2.21,4-2.21h4.48v1.93C393.59,227.26,391.71,228.1,389.54,228.1Z" transform="translate(-61.93 -139.65)"/><path class="cls-1" d="M404.68,231.5h6.53v-26h-6.53Z" transform="translate(-61.93 -139.65)"/><path class="cls-1" d="M75.46,142.38q8.19,0,11.93,3.56t3.79,9.67a17,17,0,0,1-.83,5.34,11.73,11.73,0,0,1-2.79,4.51,13,13,0,0,1-5,3.08,23,23,0,0,1-7.77,1.13H70.89v15.07h-9V142.38ZM75,149.74h-4.1v12.57h3a13.06,13.06,0,0,0,4.39-.65,5.8,5.8,0,0,0,2.85-2.07,6.25,6.25,0,0,0,1-3.68,5.78,5.78,0,0,0-1.73-4.63Q78.67,149.74,75,149.74Z" transform="translate(-61.93 -139.65)"/><path class="cls-1" d="M117.64,173a11.57,11.57,0,0,1-1.84,6.53,12,12,0,0,1-5.34,4.33,21.23,21.23,0,0,1-8.42,1.48A32.84,32.84,0,0,1,97.7,185a35.07,35.07,0,0,1-4-.83,26.21,26.21,0,0,1-3.62-1.43v-8.36c2,.87,4.09,1.68,6.23,2.43a20.78,20.78,0,0,0,6.47,1.07,8.5,8.5,0,0,0,3.5-.6,4,4,0,0,0,2-1.6,4.19,4.19,0,0,0,.65-2.31,3.72,3.72,0,0,0-1.13-2.73,10.9,10.9,0,0,0-2.91-2.08c-1.22-.67-2.63-1.38-4.21-2.13-1-.48-2.06-1-3.2-1.66a20.94,20.94,0,0,1-3.32-2.44,12.47,12.47,0,0,1-2.56-3.56,11.31,11.31,0,0,1-1-5,11.68,11.68,0,0,1,1.72-6.47,11.15,11.15,0,0,1,5-4.15,19,19,0,0,1,7.65-1.42,24.64,24.64,0,0,1,6.29.77,40.4,40.4,0,0,1,6.29,2.19l-2.91,7a49.94,49.94,0,0,0-5.22-1.84,17.55,17.55,0,0,0-4.74-.65,6.84,6.84,0,0,0-2.85.54,4.27,4.27,0,0,0-1.84,1.48,4.1,4.1,0,0,0-.59,2.25,3.81,3.81,0,0,0,.89,2.55,9.23,9.23,0,0,0,2.67,2c1.18.64,2.67,1.39,4.45,2.26a33.3,33.3,0,0,1,5.51,3.2,11.8,11.8,0,0,1,3.56,3.92A11.38,11.38,0,0,1,117.64,173Z" transform="translate(-61.93 -139.65)"/><path class="cls-1" d="M157.26,163.5a30.32,30.32,0,0,1-1.25,9,18.61,18.61,0,0,1-3.68,6.88,15.56,15.56,0,0,1-6.29,4.45,23.66,23.66,0,0,1-9,1.54,24.11,24.11,0,0,1-9-1.54,17,17,0,0,1-6.29-4.45,19.78,19.78,0,0,1-3.68-6.94,31.75,31.75,0,0,1-1.19-9A28.36,28.36,0,0,1,119.05,152a16.46,16.46,0,0,1,6.64-7.53,21.84,21.84,0,0,1,11.45-2.73,21.4,21.4,0,0,1,11.34,2.73,16.07,16.07,0,0,1,6.58,7.59A27.68,27.68,0,0,1,157.26,163.5Zm-30.91,0a23.12,23.12,0,0,0,1.12,7.65,10,10,0,0,0,3.5,4.93,11.84,11.84,0,0,0,12.29,0,9.7,9.7,0,0,0,3.44-4.93,23.12,23.12,0,0,0,1.12-7.65q0-6.7-2.49-10.5t-8.19-3.8a10.33,10.33,0,0,0-6.17,1.72,10,10,0,0,0-3.5,4.93A23.12,23.12,0,0,0,126.35,163.5Z" transform="translate(-61.93 -139.65)"/><path class="cls-1" d="M177.48,149.26a10.13,10.13,0,0,0-4.57,1,9.3,9.3,0,0,0-3.32,2.91,13.24,13.24,0,0,0-2.08,4.51,25.51,25.51,0,0,0-.65,6,24.57,24.57,0,0,0,1.07,7.71,9.63,9.63,0,0,0,3.5,4.81,10.36,10.36,0,0,0,6,1.66,22.45,22.45,0,0,0,5.16-.6,48.45,48.45,0,0,0,5.64-1.66v7.54a30.65,30.65,0,0,1-5.52,1.66,31.6,31.6,0,0,1-6.11.53,20.06,20.06,0,0,1-10.8-2.67,16.21,16.21,0,0,1-6.23-7.59,30.13,30.13,0,0,1-2-11.45,28,28,0,0,1,1.3-8.78,20,20,0,0,1,3.8-6.94,17.44,17.44,0,0,1,6.23-4.51,21.46,21.46,0,0,1,8.54-1.6,24.27,24.27,0,0,1,6.29.83,31.55,31.55,0,0,1,6.11,2.13l-2.91,7.3a46.94,46.94,0,0,0-4.8-2A14.24,14.24,0,0,0,177.48,149.26Z" transform="translate(-61.93 -139.65)"/><path class="cls-1" d="M219.47,168.48a21.22,21.22,0,0,1-1.13,7.18A14.34,14.34,0,0,1,215.2,181a13.35,13.35,0,0,1-4.93,3.27,19,19,0,0,1-6.58,1.06,18.14,18.14,0,0,1-6.29-1.06,14,14,0,0,1-4.93-3.27,15.73,15.73,0,0,1-3.26-5.34,21.22,21.22,0,0,1-1.13-7.18,19.7,19.7,0,0,1,1.9-9.07,13.2,13.2,0,0,1,5.46-5.7,17.27,17.27,0,0,1,8.43-2,16.28,16.28,0,0,1,8.06,2,13.92,13.92,0,0,1,5.52,5.7A18.6,18.6,0,0,1,219.47,168.48Zm-22.37,0a19.36,19.36,0,0,0,.65,5.4,6.63,6.63,0,0,0,2.2,3.27,6.46,6.46,0,0,0,3.86,1.06,6.17,6.17,0,0,0,3.79-1.06,6.3,6.3,0,0,0,2.14-3.27,17.81,17.81,0,0,0,.71-5.4,17.3,17.3,0,0,0-.71-5.34,5.94,5.94,0,0,0-2.14-3.2,6.45,6.45,0,0,0-3.85-1.07,5.66,5.66,0,0,0-5.11,2.44C197.62,162.89,197.1,165.28,197.1,168.48Z" transform="translate(-61.93 -139.65)"/><path class="cls-1" d="M238.64,151.75A12,12,0,0,1,247,154.6q3.13,2.79,3.14,9v21.12h-8.84V165.81a8.93,8.93,0,0,0-1.25-5.22,4.52,4.52,0,0,0-4-1.78q-4,0-5.52,2.79t-1.48,7.89v15.25h-8.84V152.35H227l1.19,4.15h.47a9,9,0,0,1,2.61-2.67,10.4,10.4,0,0,1,3.44-1.54A14.32,14.32,0,0,1,238.64,151.75Z" transform="translate(-61.93 -139.65)"/><path class="cls-1" d="M275.32,175.13a9.93,9.93,0,0,1-1.54,5.58,9.56,9.56,0,0,1-4.63,3.44,21.5,21.5,0,0,1-7.65,1.18,30.56,30.56,0,0,1-5.82-.47,22.36,22.36,0,0,1-4.86-1.43v-7.29a34.51,34.51,0,0,0,5.63,2,22.19,22.19,0,0,0,5.34.77,6.56,6.56,0,0,0,3.68-.77,2.37,2.37,0,0,0,1.13-2,2.41,2.41,0,0,0-.48-1.48,5.41,5.41,0,0,0-1.9-1.49A48.17,48.17,0,0,0,259.6,171a35,35,0,0,1-5-2.56,8.56,8.56,0,0,1-2.9-3.08,9.82,9.82,0,0,1-1-4.57,7.49,7.49,0,0,1,3.5-6.76,17,17,0,0,1,9.31-2.26A25.64,25.64,0,0,1,275,154.3l-2.67,6.35c-1.07-.47-2.09-.89-3.08-1.24a20,20,0,0,0-2.91-.83,13.24,13.24,0,0,0-2.85-.3,6.58,6.58,0,0,0-3,.53,1.72,1.72,0,0,0-.95,1.61,2.42,2.42,0,0,0,.47,1.42,6.74,6.74,0,0,0,2,1.3q1.48.72,4.33,1.9a32.17,32.17,0,0,1,4.81,2.38,8.43,8.43,0,0,1,3.08,3A8.68,8.68,0,0,1,275.32,175.13Z" transform="translate(-61.93 -139.65)"/><path class="cls-1" d="M305.4,152.35v32.39h-6.76l-1.19-4.15H297a9,9,0,0,1-2.61,2.73,11.41,11.41,0,0,1-3.44,1.48,14.31,14.31,0,0,1-3.92.53,13.91,13.91,0,0,1-6.05-1.24,8.87,8.87,0,0,1-4-3.86,14,14,0,0,1-1.42-6.76V152.35h8.84v18.92a9.06,9.06,0,0,0,1.25,5.22,4.49,4.49,0,0,0,4,1.78,6.37,6.37,0,0,0,4.21-1.24,6.53,6.53,0,0,0,2.14-3.62,22.47,22.47,0,0,0,.65-5.82V152.35Z" transform="translate(-61.93 -139.65)"/><path class="cls-1" d="M317,184.74h-8.84V139.65H317Z" transform="translate(-61.93 -139.65)"/><path class="cls-1" d="M333.34,178.27a13.91,13.91,0,0,0,2.85-.29q1.37-.3,2.73-.72v6.59a18.64,18.64,0,0,1-3.56,1,20.37,20.37,0,0,1-4.57.47,13.49,13.49,0,0,1-5.22-1,7.58,7.58,0,0,1-3.62-3.26,13.62,13.62,0,0,1-1.31-6.52V159h-4.21v-3.74l4.87-3,2.55-6.82h5.63v6.88h9.08V159h-9.08V174.6a3.53,3.53,0,0,0,1.07,2.78A4.17,4.17,0,0,0,333.34,178.27Z" transform="translate(-61.93 -139.65)"/><path class="cls-1" d="M347.73,152.35v32.39h-8.84V152.35Zm-4.39-12.7a6,6,0,0,1,3.38.95c.95.59,1.43,1.72,1.43,3.38a3.76,3.76,0,0,1-1.43,3.38,5.88,5.88,0,0,1-3.38.95,6,6,0,0,1-3.44-.95,3.83,3.83,0,0,1-1.36-3.38c0-1.66.45-2.79,1.36-3.38A6.09,6.09,0,0,1,343.34,139.65Z" transform="translate(-61.93 -139.65)"/><path class="cls-1" d="M368.83,151.75a12,12,0,0,1,8.37,2.85q3.15,2.79,3.14,9v21.12H371.5V165.81a8.93,8.93,0,0,0-1.24-5.22,4.54,4.54,0,0,0-4-1.78c-2.69,0-4.52.93-5.51,2.79s-1.49,4.45-1.49,7.89v15.25h-8.84V152.35h6.77l1.18,4.15h.48a8.76,8.76,0,0,1,2.61-2.67,10.31,10.31,0,0,1,3.44-1.54A14.2,14.2,0,0,1,368.83,151.75Z" transform="translate(-61.93 -139.65)"/><path class="cls-1" d="M393.41,151.75a11.78,11.78,0,0,1,5.34,1.19,10.76,10.76,0,0,1,4,3.56H403l.71-4.15h7.48V184.8a15.12,15.12,0,0,1-1.84,7.77,11.21,11.21,0,0,1-5.4,4.75,21.4,21.4,0,0,1-9,1.66,45.9,45.9,0,0,1-6.41-.42,26.07,26.07,0,0,1-5.69-1.48V190a31.85,31.85,0,0,0,4,1.36,25.42,25.42,0,0,0,4.22.84,34,34,0,0,0,4.39.29,6.53,6.53,0,0,0,5.1-1.84q1.73-1.83,1.72-5.51v-.66q0-1,.06-2.07c.08-.72.14-1.35.18-1.9h-.24a10.07,10.07,0,0,1-4,3.68,11.77,11.77,0,0,1-5.22,1.12,10.59,10.59,0,0,1-9-4.39q-3.21-4.44-3.21-12.34a24.79,24.79,0,0,1,1.48-9.07,12.23,12.23,0,0,1,4.28-5.76A11.3,11.3,0,0,1,393.41,151.75Zm2.79,7.18a5.46,5.46,0,0,0-3.5,1.13,6.61,6.61,0,0,0-2.08,3.26,19.06,19.06,0,0,0-.65,5.4c0,3.24.51,5.68,1.54,7.3a5.33,5.33,0,0,0,4.81,2.37,9.62,9.62,0,0,0,3-.41,4.47,4.47,0,0,0,2-1.49,7.34,7.34,0,0,0,1.25-2.73,17.18,17.18,0,0,0,.41-4v-1.07a18.38,18.38,0,0,0-.71-5.63,5.58,5.58,0,0,0-2.19-3.09A6.77,6.77,0,0,0,396.2,158.93Z" transform="translate(-61.93 -139.65)"/></svg>