<svg width="280" height="280" viewBox="0 0 280 280" fill="none" xmlns="http://www.w3.org/2000/svg">
<path d="M0 15C0 6.71572 6.71573 0 15 0H265C273.284 0 280 6.71573 280 15V280H0V15Z" fill="white"/>
<path d="M141.5 82.625C116.801 82.625 96.6562 102.77 96.6562 127.469C96.6562 142.809 104.464 156.422 116.275 164.505C93.353 174.264 77.4375 197.037 77.4375 223.562H90.25C90.25 194.96 112.897 172.312 141.5 172.312C170.103 172.312 192.75 194.96 192.75 223.562H205.562C205.562 197.037 189.647 174.264 166.725 164.505C178.536 156.422 186.344 142.809 186.344 127.469C186.344 102.77 166.199 82.625 141.5 82.625ZM141.5 95.4375C159.267 95.4375 173.531 109.701 173.531 127.469C173.531 145.236 159.267 159.5 141.5 159.5C123.733 159.5 109.469 145.236 109.469 127.469C109.469 109.701 123.733 95.4375 141.5 95.4375Z" fill="#EEEEEE"/>
</svg>
