<svg width="54" height="54" viewBox="0 0 54 54" fill="none" xmlns="http://www.w3.org/2000/svg">
<path d="M27.0003 0.319824C12.2791 0.319824 0.320312 12.2786 0.320312 26.9998C0.320312 41.721 12.2791 53.6798 27.0003 53.6798C41.7215 53.6798 53.6803 41.721 53.6803 26.9998C53.6803 12.2786 41.7215 0.319824 27.0003 0.319824ZM27.0003 2.63982C40.4677 2.63982 51.3603 13.5324 51.3603 26.9998C51.3603 40.4672 40.4677 51.3598 27.0003 51.3598C13.5329 51.3598 2.64031 40.4672 2.64031 26.9998C2.64031 13.5324 13.5329 2.63982 27.0003 2.63982ZM25.8403 9.59982V12.8487C19.3443 13.1967 18.2414 18.0669 18.2414 20.2709C18.2414 31.1749 34.1348 25.3749 34.1348 33.6109C34.1348 34.6549 33.9032 39.2954 27.0592 39.2954C26.8272 39.2954 19.7494 39.2967 19.9814 31.9887H17.5459C17.7779 39.7607 22.7083 40.8029 25.8403 41.1509V44.3998H28.1603V41.1509C35.9323 40.5709 36.4548 34.7709 36.4548 33.6109C36.4548 23.1709 20.5614 28.5083 20.5614 20.5043C20.5614 17.8363 21.6072 14.7043 27.0592 14.7043C32.6272 14.7043 33.3232 19.1123 33.4392 21.0843H35.8748C36.1068 17.8363 33.7872 13.0807 28.2192 12.8487V9.59982H25.8403Z" fill="#253596"/>
</svg>
