<svg width="40" height="41" viewBox="0 0 40 41" fill="none" xmlns="http://www.w3.org/2000/svg">
<g clip-path="url(#clip0_196_828)">
<path d="M27.8125 5.125C24.5859 5.125 21.7609 6.54719 20 8.95113C18.2391 6.54719 15.4141 5.125 12.1875 5.125C9.6191 5.12797 7.15673 6.17508 5.3406 8.03662C3.52447 9.89815 2.50289 12.4221 2.5 15.0547C2.5 26.2656 18.7172 35.3401 19.4078 35.7148C19.5898 35.8152 19.7933 35.8677 20 35.8677C20.2067 35.8677 20.4102 35.8152 20.5922 35.7148C21.2828 35.3401 37.5 26.2656 37.5 15.0547C37.4971 12.4221 36.4755 9.89815 34.6594 8.03662C32.8433 6.17508 30.3809 5.12797 27.8125 5.125ZM20 33.1203C17.1469 31.4163 5 23.6535 5 15.0547C5.00248 13.1016 5.76053 11.2292 7.10791 9.84811C8.45529 8.46704 10.282 7.69004 12.1875 7.6875C15.2266 7.6875 17.7781 9.34672 18.8437 12.0117C18.9379 12.2467 19.0981 12.4477 19.304 12.5892C19.5099 12.7306 19.7521 12.8061 20 12.8061C20.2479 12.8061 20.4901 12.7306 20.696 12.5892C20.9019 12.4477 21.0621 12.2467 21.1562 12.0117C22.2219 9.34191 24.7734 7.6875 27.8125 7.6875C29.718 7.69004 31.5447 8.46704 32.8921 9.84811C34.2395 11.2292 34.9975 13.1016 35 15.0547C35 23.6407 22.85 31.4146 20 33.1203Z" fill="#37085B"/>
<path d="M27.8906 5.125C24.6641 5.125 21.8391 6.54719 20.0781 8.95113C18.3172 6.54719 15.4922 5.125 12.2656 5.125C9.69723 5.12797 7.23486 6.17508 5.41873 8.03662C3.60259 9.89815 2.58102 12.4221 2.57812 15.0547C2.57813 26.2656 18.7953 35.3401 19.4859 35.7148C19.668 35.8152 19.8714 35.8677 20.0781 35.8677C20.2848 35.8677 20.4883 35.8152 20.6703 35.7148C21.3609 35.3401 37.5781 26.2656 37.5781 15.0547C37.5752 12.4221 36.5537 9.89815 34.7375 8.03662C32.9214 6.17508 30.459 5.12797 27.8906 5.125Z" fill="#37085B"/>
<path d="M27.8906 5.125C24.6641 5.125 21.8391 6.54719 20.0781 8.95113C18.3172 6.54719 15.4922 5.125 12.2656 5.125C9.69723 5.12797 7.23486 6.17508 5.41873 8.03662C3.60259 9.89815 2.58102 12.4221 2.57812 15.0547C2.57813 26.2656 18.7953 35.3401 19.4859 35.7148C19.668 35.8152 19.8714 35.8677 20.0781 35.8677C20.2848 35.8677 20.4883 35.8152 20.6703 35.7148C21.3609 35.3401 37.5781 26.2656 37.5781 15.0547C37.5752 12.4221 36.5537 9.89815 34.7375 8.03662C32.9214 6.17508 30.459 5.12797 27.8906 5.125Z" fill="#37085B"/>
<path d="M27.8906 5.125C24.6641 5.125 21.8391 6.54719 20.0781 8.95113C18.3172 6.54719 15.4922 5.125 12.2656 5.125C9.69723 5.12797 7.23486 6.17508 5.41873 8.03662C3.60259 9.89815 2.58102 12.4221 2.57812 15.0547C2.57813 26.2656 18.7953 35.3401 19.4859 35.7148C19.668 35.8152 19.8714 35.8677 20.0781 35.8677C20.2848 35.8677 20.4883 35.8152 20.6703 35.7148C21.3609 35.3401 37.5781 26.2656 37.5781 15.0547C37.5752 12.4221 36.5537 9.89815 34.7375 8.03662C32.9214 6.17508 30.459 5.12797 27.8906 5.125Z" fill="#37085B"/>
<path d="M27.8906 5.125C24.6641 5.125 21.8391 6.54719 20.0781 8.95113C18.3172 6.54719 15.4922 5.125 12.2656 5.125C9.69723 5.12797 7.23486 6.17508 5.41873 8.03662C3.60259 9.89815 2.58102 12.4221 2.57812 15.0547C2.57813 26.2656 18.7953 35.3401 19.4859 35.7148C19.668 35.8152 19.8714 35.8677 20.0781 35.8677C20.2848 35.8677 20.4883 35.8152 20.6703 35.7148C21.3609 35.3401 37.5781 26.2656 37.5781 15.0547C37.5752 12.4221 36.5537 9.89815 34.7375 8.03662C32.9214 6.17508 30.459 5.12797 27.8906 5.125Z" stroke="#37085B" stroke-width="4"/>
</g>
<defs>
<clipPath id="clip0_196_828">
<rect width="40" height="41" fill="white"/>
</clipPath>
</defs>
</svg>
