<svg width="38" height="28" viewBox="0 0 38 28" fill="none" xmlns="http://www.w3.org/2000/svg">
<path d="M20.5058 4.44103L23.9622 8.79516H23.9613L24.6029 9.60553C24.848 9.91512 25.1907 10.1327 25.5751 10.2229C25.9595 10.3132 26.3632 10.2707 26.7204 10.1025L26.7206 10.1024L33.0006 7.14244L33.347 6.97916L33.2796 6.60216C33.206 6.19041 33.2634 5.76594 33.4436 5.38847L32.9924 5.17304L33.4436 5.38847C33.6238 5.011 33.9178 4.69954 34.2843 4.4979C34.6508 4.29626 35.0712 4.21459 35.4865 4.26439C35.9018 4.31419 36.2911 4.49295 36.5995 4.77552C36.9079 5.05808 37.12 5.43023 37.2058 5.83961C37.2917 6.24898 37.247 6.67497 37.0782 7.05765C36.9093 7.44033 36.6247 7.76042 36.2644 7.9729C35.9041 8.18538 35.4862 8.27955 35.0696 8.24216L34.6227 8.20205L34.5347 8.64209L31.2847 24.8896L31.2846 24.8897C31.1657 25.4849 30.8441 26.0204 30.3747 26.4052C29.9053 26.79 29.317 27.0003 28.71 27.0002H28.7099H9.28556C8.6796 26.9994 8.09256 26.789 7.62405 26.4047C7.15554 26.0204 6.83442 25.4859 6.71516 24.8918L3.46523 8.6421L3.37722 8.20205L2.93025 8.24216C2.51364 8.27955 2.09579 8.18538 1.7355 7.9729C1.37521 7.76042 1.0906 7.44032 0.92172 7.05765C0.752842 6.67497 0.708195 6.24898 0.79406 5.83961C0.879925 5.43023 1.09198 5.05808 1.40039 4.77552L1.06991 4.41481L1.40039 4.77552C1.7088 4.49295 2.09804 4.31419 2.51335 4.26439C2.92865 4.21459 3.34912 4.29626 3.7156 4.4979C4.08207 4.69954 4.3761 5.011 4.55631 5.38847C4.73653 5.76594 4.79386 6.19041 4.72025 6.60216L4.65284 6.97916L4.99928 7.14244L11.2743 10.0999L11.2745 10.1C11.6317 10.2682 12.0354 10.3107 12.4198 10.2204C12.804 10.1303 13.1464 9.91291 13.3915 9.60365C13.3916 9.60345 13.3918 9.60324 13.392 9.60303L17.4963 4.44135L17.7535 4.11783L17.4842 3.80432C17.2348 3.51405 17.0739 3.15832 17.0207 2.77936C16.9674 2.40039 17.024 2.01409 17.1837 1.66632C17.3434 1.31854 17.5995 1.02389 17.9217 0.817332C18.2438 0.610772 18.6185 0.500977 19.0012 0.500977C19.3839 0.500977 19.7585 0.610772 20.0807 0.817332C20.4029 1.02389 20.659 1.31855 20.8187 1.66632C20.9784 2.01409 21.035 2.40039 20.9817 2.77935C20.9285 3.15832 20.7676 3.51405 20.5182 3.80432L20.2491 4.11757L20.5058 4.44103ZM19.389 5.4492L18.9972 4.9559L18.6057 5.44943L14.5684 10.5392C14.5684 10.5392 14.5684 10.5393 14.5683 10.5393C14.1127 11.113 13.4765 11.5159 12.7631 11.6826C12.0497 11.8494 11.3008 11.7702 10.6381 11.4579L10.638 11.4578L5.92553 9.23784L5.02739 8.81474L5.22216 9.78825L8.18464 24.5957C8.2356 24.8506 8.37328 25.08 8.57427 25.2449C8.77526 25.4098 9.02716 25.5 9.28714 25.5002H9.28744H28.7124H28.7127C28.9727 25.5 29.2246 25.4098 29.4256 25.2449C29.6266 25.08 29.7643 24.8506 29.8152 24.5957C29.8152 24.5957 29.8152 24.5957 29.8152 24.5957L32.7777 9.78825L32.9725 8.81474L32.0744 9.23784L27.3619 11.4578L27.3618 11.4579C26.699 11.7702 25.9502 11.8494 25.2367 11.6826C24.5233 11.5159 23.8871 11.1129 23.4315 10.5392L19.389 5.4492ZM20.4142 18.9144C20.0391 19.2894 19.5304 19.5002 18.9999 19.5002C18.4695 19.5002 17.9608 19.2894 17.5857 18.9144C17.2107 18.5393 16.9999 18.0306 16.9999 17.5002C16.9999 16.9697 17.2107 16.461 17.5857 16.0859C17.9608 15.7109 18.4695 15.5002 18.9999 15.5002C19.5304 15.5002 20.0391 15.7109 20.4142 16.0859C20.7892 16.461 20.9999 16.9697 20.9999 17.5002C20.9999 18.0306 20.7892 18.5393 20.4142 18.9144Z" fill="#EEEEEE" stroke="#36007A"/>
</svg>
