<svg width="113" height="113" viewBox="0 0 113 113" fill="none" xmlns="http://www.w3.org/2000/svg">
<path d="M16.7734 59.1484H32.6641C34.1295 59.1484 35.3125 57.9655 35.3125 56.5C35.3125 55.0345 34.1295 53.8516 32.6641 53.8516H16.7734C10.9292 53.8516 6.17969 49.102 6.17969 43.2578C6.17969 37.4136 10.9292 32.6641 16.7734 32.6641H32.6641C34.1295 32.6641 35.3125 31.4811 35.3125 30.0156C35.3125 28.5502 34.1295 27.3672 32.6641 27.3672C26.8198 27.3672 22.0703 22.6177 22.0703 16.7734C22.0703 10.9292 26.8198 6.17969 32.6641 6.17969C38.5083 6.17969 43.2578 10.9292 43.2578 16.7734V106.82H21.1875C17.7798 106.82 15.0078 104.048 15.0078 100.641V69.7422C15.0078 68.2767 13.8248 67.0938 12.3594 67.0938C10.8939 67.0938 9.71094 68.2767 9.71094 69.7422V100.641C9.71094 106.97 14.8577 112.117 21.1875 112.117H91.8125C98.1423 112.117 103.289 106.97 103.289 100.641V69.7422C103.289 68.2767 102.106 67.0938 100.641 67.0938C99.1752 67.0938 97.9922 68.2767 97.9922 69.7422V100.641C97.9922 104.048 95.2202 106.82 91.8125 106.82H48.5547V59.1484H96.2266C104.984 59.1484 112.117 52.0241 112.117 43.2578C112.117 34.4915 104.984 27.3672 96.2266 27.3672H81.5542C84.0791 24.551 85.6328 20.8432 85.6328 16.7734C85.6328 8.00711 78.4997 0.882812 69.7422 0.882812C60.9847 0.882812 53.8516 8.00711 53.8516 16.7734C53.8516 25.5398 60.9847 32.6641 69.7422 32.6641H96.2266C102.071 32.6641 106.82 37.4136 106.82 43.2578C106.82 49.102 102.071 53.8516 96.2266 53.8516H48.5547V16.7734C48.5547 8.00711 41.4216 0.882812 32.6641 0.882812C23.9066 0.882812 16.7734 8.00711 16.7734 16.7734C16.7734 20.8432 18.3272 24.551 20.852 27.3672H16.7734C8.01594 27.3672 0.882812 34.4915 0.882812 43.2578C0.882812 52.0241 8.01594 59.1484 16.7734 59.1484ZM69.7422 27.3672C63.898 27.3672 59.1484 22.6177 59.1484 16.7734C59.1484 10.9292 63.898 6.17969 69.7422 6.17969C75.5864 6.17969 80.3359 10.9292 80.3359 16.7734C80.3359 22.6177 75.5864 27.3672 69.7422 27.3672Z" fill="#37085B"/>
</svg>
