<svg width="40" height="41" viewBox="0 0 40 41" fill="none" xmlns="http://www.w3.org/2000/svg">
<path d="M28.7523 0.953125C25.9812 0.953125 23.2102 2.00476 21.1044 4.11056L1.34707 23.8679C1.20611 24.0033 1.09358 24.1654 1.01605 24.3447C0.938526 24.5241 0.89757 24.7172 0.895584 24.9126C0.893597 25.108 0.930619 25.3018 1.00448 25.4827C1.07834 25.6636 1.18756 25.828 1.32574 25.9662C1.46391 26.1043 1.62827 26.2136 1.80919 26.2874C1.9901 26.3613 2.18394 26.3983 2.37934 26.3963C2.57474 26.3943 2.76778 26.3534 2.94716 26.2758C3.12653 26.1983 3.28864 26.0858 3.42398 25.9448L23.1813 6.18746C26.2704 3.09838 31.2341 3.09838 34.3232 6.18746C37.4123 9.27654 37.4123 14.2402 34.3232 17.3293L15.6769 35.9755C14.0753 37.5772 11.5221 37.5772 9.92052 35.9755C8.3189 34.3739 8.3189 31.8207 9.92052 30.2191L24.9656 15.174C25.1066 15.0387 25.2191 14.8765 25.2967 14.6972C25.3742 14.5178 25.4151 14.3248 25.4171 14.1294C25.4191 13.934 25.3821 13.7401 25.3082 13.5592C25.2344 13.3783 25.1252 13.2139 24.987 13.0758C24.8488 12.9376 24.6844 12.8284 24.5035 12.7545C24.3226 12.6806 24.1288 12.6436 23.9334 12.6456C23.738 12.6476 23.5449 12.6885 23.3656 12.7661C23.1862 12.8436 23.0241 12.9561 22.8887 13.0971L7.84361 28.1422C5.11927 30.8666 5.11927 35.3281 7.84361 38.0525C10.568 40.7768 15.0295 40.7768 17.7539 38.0525L36.4001 19.4062C40.6117 15.1946 40.6117 8.32214 36.4001 4.11056C34.2943 2.00476 31.5233 0.953125 28.7523 0.953125Z" fill="#253596"/>
</svg>
