<svg width="22" height="22" viewBox="0 0 22 22" fill="none" xmlns="http://www.w3.org/2000/svg">
<path d="M8.95833 0.5C4.29729 0.5 0.5 4.29729 0.5 8.95833C0.5 13.6194 4.29729 17.4167 8.95833 17.4167C10.9745 17.4167 12.828 16.7044 14.2835 15.5208L20.0063 21.2437C20.087 21.3276 20.1835 21.3947 20.2904 21.4409C20.3973 21.487 20.5123 21.5114 20.6287 21.5126C20.7451 21.5138 20.8606 21.4917 20.9683 21.4477C21.0761 21.4037 21.174 21.3387 21.2564 21.2564C21.3387 21.174 21.4037 21.0761 21.4477 20.9683C21.4917 20.8606 21.5138 20.7451 21.5126 20.6287C21.5114 20.5123 21.487 20.3973 21.4409 20.2904C21.3947 20.1835 21.3276 20.087 21.2437 20.0063L15.5208 14.2835C16.7044 12.828 17.4167 10.9745 17.4167 8.95833C17.4167 4.29729 13.6194 0.5 8.95833 0.5ZM8.95833 2.25C12.6736 2.25 15.6667 5.24306 15.6667 8.95833C15.6667 10.7682 14.9528 12.4033 13.7948 13.6079C13.7234 13.6604 13.6604 13.7234 13.6079 13.7948C12.4033 14.9528 10.7682 15.6667 8.95833 15.6667C5.24306 15.6667 2.25 12.6736 2.25 8.95833C2.25 5.24306 5.24306 2.25 8.95833 2.25Z" fill="#37085B"/>
</svg>
