<svg width="184" height="29" viewBox="0 0 184 29" fill="none" xmlns="http://www.w3.org/2000/svg">
<path d="M5.74647 22.8443V18.5195C5.75805 18.5195 5.82749 18.5254 5.9548 18.537C6.08212 18.5486 6.16892 18.5544 6.21522 18.5544C6.26151 18.5544 6.34832 18.5602 6.47563 18.5719C6.61452 18.5719 6.71869 18.5777 6.78813 18.5893C6.86915 18.5893 6.97331 18.5951 7.10063 18.6067C7.23951 18.6067 7.35525 18.6125 7.44785 18.6242C7.55201 18.6242 7.66196 18.6242 7.7777 18.6242C7.90502 18.6242 8.02654 18.6242 8.14228 18.6242C9.04505 18.6242 9.90153 18.4207 10.7117 18.0138C11.5219 17.6069 12.2453 17.0257 12.8818 16.27C13.5184 15.5143 14.0219 14.5494 14.3922 13.3752C14.7742 12.1894 14.9651 10.8757 14.9651 9.43416C14.9651 7.03929 14.3864 5.24314 13.229 4.0457C12.0716 2.84827 10.3703 2.24955 8.12492 2.24955C7.32632 2.24955 6.30781 2.27861 5.0694 2.33674C3.83098 2.38324 2.90507 2.40649 2.29165 2.40649H0V22.8443H5.74647ZM9.27075 8.66687V11.2477C9.27075 12.4103 9.01612 13.2997 8.50686 13.9158C8.00918 14.532 7.30317 14.84 6.38883 14.84H5.74647V5.7721H6.5798C7.44785 5.7721 8.11335 6.03949 8.57631 6.57426C9.03927 7.10904 9.27075 7.80657 9.27075 8.66687Z" fill="#673AB7"/>
<path d="M21.8488 22.8443V12.6777C21.8603 12.6661 21.9182 12.6137 22.0224 12.5207C22.1381 12.4277 22.2075 12.3696 22.2307 12.3464C22.2654 12.3231 22.3291 12.2766 22.4217 12.2069C22.5258 12.1371 22.6011 12.0906 22.6474 12.0673C22.7052 12.0441 22.7805 12.0092 22.873 11.9627C22.9656 11.9162 23.0524 11.8872 23.1335 11.8755C23.2261 11.8639 23.3186 11.8581 23.4112 11.8581C24.3719 11.8581 24.8348 12.4045 24.8001 13.4973V22.8443H30.5292V14.003C30.5292 13.9216 30.535 13.8112 30.5466 13.6717C30.5466 13.5322 30.5466 13.4275 30.5466 13.3578C30.5466 11.3117 30.2167 9.85268 29.557 8.98076C28.9089 8.10884 27.792 7.67288 26.2064 7.67288C25.755 7.67288 25.292 7.76588 24.8175 7.95189C24.3545 8.12628 23.9552 8.34135 23.6196 8.59711C23.2839 8.84125 22.9772 9.0912 22.6994 9.34696C22.4332 9.60273 22.2307 9.82361 22.0918 10.0096L21.8835 10.2712V0H20.755L15.1821 0.871919V2.49369L16.2238 3.12147V22.8443H21.8488Z" fill="#673AB7"/>
<path d="M39.671 21.1179C38.6062 21.1179 38.0738 20.0192 38.0738 17.822V12.1545C38.0738 11.4105 38.2127 10.835 38.4904 10.4281C38.7682 10.0212 39.1559 9.8178 39.6536 9.8178C40.7184 9.8178 41.2508 10.9513 41.2508 13.2183V18.7288C41.2508 19.4728 41.1119 20.0599 40.8342 20.4901C40.568 20.9086 40.1802 21.1179 39.671 21.1179ZM39.5321 23.2105C42.2751 23.2105 44.2832 22.5711 45.5563 21.2922C46.8411 20.0134 47.4834 18.0371 47.4834 15.3632C47.4834 12.7823 46.8758 10.8583 45.6605 9.5911C44.4568 8.31229 42.495 7.67288 39.7751 7.67288C36.9858 7.67288 34.972 8.34135 33.7335 9.67829C32.4951 11.0036 31.8759 12.98 31.8759 15.6073C31.8759 18.258 32.4893 20.1878 33.7162 21.3969C34.943 22.6059 36.8817 23.2105 39.5321 23.2105Z" fill="#673AB7"/>
<path d="M54.9823 22.8443V12.6777C55.0054 12.6544 55.0459 12.6196 55.1038 12.5731C55.1732 12.5149 55.2195 12.4742 55.2427 12.451C55.2774 12.4277 55.3237 12.3929 55.3816 12.3464C55.451 12.2882 55.5031 12.2475 55.5378 12.2243C55.5725 12.201 55.6188 12.172 55.6767 12.1371C55.7346 12.0906 55.7866 12.0615 55.8329 12.0499C55.8792 12.0267 55.9313 12.0034 55.9892 11.9802C56.0586 11.9453 56.1165 11.922 56.1628 11.9104C56.2207 11.8988 56.2785 11.8872 56.3364 11.8755C56.4058 11.8639 56.4753 11.8581 56.5447 11.8581C57.5054 11.8581 57.9683 12.4045 57.9336 13.4973V22.8443H63.6627V14.003C63.6627 13.9216 63.6685 13.8112 63.6801 13.6717C63.6801 13.5322 63.6801 13.4275 63.6801 13.3578C63.6801 11.3117 63.3502 9.85268 62.6905 8.98076C62.0424 8.10884 60.9255 7.67288 59.3399 7.67288C58.8885 7.67288 58.4255 7.76588 57.951 7.95189C57.488 8.12628 57.0887 8.34135 56.7531 8.59711C56.4174 8.84125 56.1107 9.0912 55.8329 9.34696C55.5667 9.60273 55.3642 9.82361 55.2253 10.0096L55.017 10.2712V8.02165H52.0656L48.333 9.05051V10.9164L49.3747 11.5616V22.8443H54.9823Z" fill="#673AB7"/>
<path d="M73.6491 13.8286H71.0102V12.3638C71.0102 11.9453 71.0218 11.6023 71.0449 11.3349C71.0797 11.0559 71.1491 10.7885 71.2533 10.5328C71.3574 10.2654 71.5195 10.0736 71.7394 9.95731C71.9593 9.82942 72.2428 9.76548 72.5901 9.76548C72.9951 9.76548 73.2729 10.0736 73.4234 10.6897C73.5738 11.3059 73.6491 12.3522 73.6491 13.8286ZM72.2602 23.2105C72.9546 23.2105 73.6838 23.1291 74.4477 22.9663C75.2115 22.8036 76.0044 22.4897 76.8261 22.0247C77.6595 21.548 78.2902 20.9609 78.7185 20.2634L77.6942 18.5021C77.3701 18.8044 76.965 19.0659 76.4789 19.2868C76.0044 19.5077 75.5298 19.6705 75.0553 19.7751C74.5923 19.8797 74.1583 19.9321 73.7532 19.9321C73.3366 19.9321 72.9836 19.8972 72.6942 19.8274C72.4049 19.7577 72.1213 19.6182 71.8435 19.4089C71.5658 19.1996 71.3516 18.8741 71.2012 18.4324C71.0623 17.9906 70.9928 17.4267 70.9928 16.7408V16.4095H78.9268V14.4738C78.9268 12.0906 78.4349 10.3642 77.4511 9.29465C76.4673 8.21347 74.8354 7.67288 72.5553 7.67288C70.1827 7.67288 68.3366 8.34135 67.0172 9.67829C65.6978 11.0152 65.038 12.9858 65.038 15.5899C65.038 16.6827 65.1654 17.6767 65.42 18.5719C65.6746 19.4554 66.0739 20.2518 66.6179 20.9609C67.1734 21.6701 67.9257 22.2223 68.8748 22.6176C69.8354 23.0128 70.9639 23.2105 72.2602 23.2105Z" fill="#673AB7"/>
<path d="M87.4741 19.9844H86.363V5.42333H87.6651C88.4752 5.42333 89.1002 5.92323 89.54 6.92303C89.9798 7.92283 90.1997 9.34115 90.1997 11.178V12.9393C90.1997 15.4504 89.9625 17.2524 89.488 18.3452C89.025 19.438 88.3537 19.9844 87.4741 19.9844ZM88.0123 22.9663C89.2854 22.9663 90.4197 22.7454 91.415 22.3037C92.4104 21.8619 93.209 21.2864 93.8108 20.5773C94.4127 19.8681 94.9104 19.0253 95.3039 18.0487C95.6974 17.0605 95.9636 16.0782 96.1025 15.1016C96.2529 14.1251 96.3282 13.0962 96.3282 12.015C96.3282 8.82963 95.6858 6.40569 94.4011 4.74324C93.128 3.08078 91.0157 2.24955 88.0643 2.24955C87.5435 2.24955 86.8259 2.2728 85.9116 2.3193C84.9972 2.3658 84.1524 2.39487 83.3769 2.40649H80.6165V22.8443H83.3769C84.3028 22.8443 85.1998 22.8617 86.0678 22.8966C86.9475 22.9431 87.5956 22.9663 88.0123 22.9663Z" fill="#673AB7"/>
<path d="M105.651 21.2922L106.207 22.8443H110.964L110.478 21.4841V14.3867C110.478 13.1078 110.379 12.0557 110.183 11.2303C109.986 10.3933 109.65 9.70736 109.176 9.17258C108.713 8.62618 108.105 8.24253 107.353 8.02165C106.6 7.78914 105.646 7.67288 104.488 7.67288C103.18 7.67288 101.896 7.87052 100.634 8.26578C99.3725 8.64943 98.3482 9.09701 97.5612 9.60854L98.6723 11.9802C99.1121 11.7476 99.7197 11.55 100.495 11.3873C101.271 11.2129 102.017 11.1257 102.735 11.1257C103.568 11.1257 104.17 11.271 104.54 11.5616C104.922 11.8523 105.113 12.3522 105.113 13.0613V13.3752C104.72 13.3752 104.309 13.3927 103.881 13.4275C103.452 13.4624 102.966 13.5322 102.422 13.6368C101.878 13.7414 101.357 13.8751 100.86 14.0379C100.374 14.189 99.8876 14.4041 99.4015 14.6831C98.9154 14.9505 98.4987 15.2586 98.1515 15.6073C97.8043 15.9561 97.5207 16.3862 97.3008 16.8978C97.0809 17.3977 96.9709 17.9499 96.9709 18.5544C96.9709 21.6584 98.5334 23.2105 101.658 23.2105C102.121 23.2105 102.573 23.1407 103.013 23.0012C103.452 22.8733 103.823 22.7164 104.124 22.5304C104.436 22.3444 104.708 22.1583 104.94 21.9723C105.183 21.7863 105.362 21.6236 105.478 21.4841L105.651 21.2922ZM104.28 20.1413C103.296 20.1413 102.804 19.4147 102.804 17.9615C102.804 17.1477 103.013 16.549 103.429 16.1654C103.846 15.7701 104.407 15.5725 105.113 15.5725V19.7577C105.113 19.7577 105.078 19.7925 105.009 19.8623C104.94 19.9204 104.835 19.9844 104.697 20.0541C104.569 20.1122 104.43 20.1413 104.28 20.1413Z" fill="#673AB7"/>
<path d="M118.306 22.8443V14.8749C118.641 14.2471 119.399 13.9333 120.58 13.9333C121.402 13.9333 121.934 14.0437 122.177 14.2646L122.767 8.05653C122.455 7.95189 122.154 7.89958 121.865 7.89958C119.295 7.89958 117.773 9.32371 117.299 12.172L116.795 8.02165H115.389L111.656 8.94588V10.9164L112.698 11.5616V22.8443H118.306Z" fill="#673AB7"/>
<path d="M123.951 22.8443H129.611V0H128.482L122.909 0.871919V2.49369L123.951 3.12147V22.8443Z" fill="#673AB7"/>
<path d="M131.924 22.8443H137.514V8.02165H134.615L130.882 9.05051V10.9164L131.924 11.5616V22.8443ZM134.441 6.41732H135.101L138.07 3.53999V2.92964L135.101 0.0697531H134.441L131.594 2.92964V3.53999L134.441 6.41732Z" fill="#673AB7"/>
<path d="M145.517 22.8443V12.6777C145.54 12.6544 145.581 12.6196 145.638 12.5731C145.708 12.5149 145.754 12.4742 145.777 12.451C145.812 12.4277 145.858 12.3929 145.916 12.3464C145.986 12.2882 146.038 12.2475 146.072 12.2243C146.107 12.201 146.153 12.172 146.211 12.1371C146.269 12.0906 146.321 12.0615 146.368 12.0499C146.414 12.0267 146.466 12.0034 146.524 11.9802C146.593 11.9453 146.651 11.922 146.697 11.9104C146.755 11.8988 146.813 11.8872 146.871 11.8755C146.94 11.8639 147.01 11.8581 147.079 11.8581C148.04 11.8581 148.503 12.4045 148.468 13.4973V22.8443H154.197V14.003C154.197 13.9216 154.203 13.8112 154.215 13.6717C154.215 13.5322 154.215 13.4275 154.215 13.3578C154.215 11.3117 153.885 9.85268 153.225 8.98076C152.577 8.10884 151.46 7.67288 149.874 7.67288C149.423 7.67288 148.96 7.76588 148.486 7.95189C148.023 8.12628 147.623 8.34135 147.288 8.59711C146.952 8.84125 146.645 9.0912 146.368 9.34696C146.101 9.60273 145.899 9.82361 145.76 10.0096L145.552 10.2712V8.02165H142.6L138.868 9.05051V10.9164L139.909 11.5616V22.8443H145.517Z" fill="#673AB7"/>
<path d="M163.073 29C167.887 29 170.295 26.733 170.295 22.199V10.5502L171.336 9.8178V8.17859L168.073 8.02165H165.416L165.121 8.84125C164.068 8.20184 162.824 7.88214 161.389 7.88214C160.44 7.88214 159.589 8.08559 158.837 8.49248C158.084 8.88775 157.471 9.43997 156.996 10.1491C156.533 10.8467 156.18 11.6605 155.937 12.5905C155.694 13.5089 155.573 14.5145 155.573 15.6073C155.573 17.9441 156.018 19.7693 156.909 21.083C157.801 22.3967 159.201 23.0535 161.111 23.0535C162.523 23.0535 163.721 22.542 164.705 21.5189V23.0012C164.693 23.257 164.67 23.4895 164.635 23.6987C164.612 23.908 164.542 24.1405 164.427 24.3963C164.311 24.6637 164.161 24.8845 163.975 25.0589C163.79 25.2449 163.524 25.3961 163.177 25.5123C162.841 25.6402 162.442 25.7041 161.979 25.7041C161.516 25.7041 160.96 25.6111 160.312 25.4251C159.664 25.2391 159.195 25.0357 158.906 24.8148L157.812 27.2038C158.148 27.5759 158.883 27.9653 160.017 28.3722C161.151 28.7907 162.17 29 163.073 29ZM163.628 19.8797C162.83 19.8797 162.257 19.4205 161.909 18.5021C161.713 17.9673 161.614 17.3279 161.614 16.5839V13.8809C161.626 11.5093 162.401 10.3177 163.941 10.3061C164.172 10.3061 164.427 10.3351 164.705 10.3933V19.5833C164.334 19.7809 163.975 19.8797 163.628 19.8797Z" fill="#673AB7"/>
<path d="M177.281 23.2105C181.76 23.2105 184 21.4201 184 17.8394C184 16.6071 183.693 15.5783 183.08 14.7529C182.466 13.9274 181.483 13.288 180.128 12.8346C179.885 12.7649 179.596 12.6893 179.26 12.6079C178.925 12.5149 178.664 12.4452 178.479 12.3987C178.294 12.3405 178.103 12.2708 177.906 12.1894C177.721 12.0964 177.588 11.9918 177.507 11.8755C177.426 11.7476 177.385 11.5907 177.385 11.4047C177.385 10.7537 177.935 10.4281 179.035 10.4281C180.377 10.4281 181.431 10.806 182.194 11.5616L182.958 9.06795C182.958 9.06795 182.854 8.96913 182.646 8.7715C181.708 8.03909 180.25 7.67288 178.271 7.67288C177.113 7.67288 176.066 7.84145 175.129 8.17859C174.191 8.51573 173.421 9.06214 172.82 9.8178C172.218 10.5618 171.917 11.457 171.917 12.5033C171.917 15.0609 173.265 16.7466 175.962 17.5604C177.004 17.8743 177.756 18.1533 178.219 18.3975C178.682 18.63 178.913 18.8974 178.913 19.1996C178.913 19.5135 178.78 19.7577 178.514 19.9321C178.259 20.1064 177.785 20.1936 177.09 20.1936C176.13 20.1936 175.186 20.0541 174.261 19.7751C173.346 19.4961 172.692 19.1648 172.299 18.7811L171.847 21.5887C172.16 21.9375 172.872 22.2979 173.983 22.6699C175.094 23.0303 176.193 23.2105 177.281 23.2105Z" fill="#673AB7"/>
</svg>
