<svg width="258" height="45" viewBox="0 0 258 45" fill="none" xmlns="http://www.w3.org/2000/svg">
<path d="M9.99187 2.07C14.0237 2.07 16.9599 2.97 18.8005 4.77C20.6703 6.54 21.6052 8.985 21.6052 12.105C21.6052 13.515 21.4007 14.865 20.9917 16.155C20.5827 17.415 19.8961 18.555 18.932 19.575C17.997 20.565 16.7554 21.345 15.2069 21.915C13.6585 22.485 11.7448 22.77 9.46598 22.77H6.61742V34.2H0V2.07H9.99187ZM9.64128 7.65H6.61742V17.19H8.80862C10.0649 17.19 11.1459 17.025 12.0516 16.695C12.9573 16.365 13.6585 15.84 14.1551 15.12C14.6518 14.4 14.9002 13.47 14.9002 12.33C14.9002 10.74 14.4765 9.57 13.6293 8.82C12.782 8.04 11.4527 7.65 9.64128 7.65Z" fill="white"/>
<path d="M41.1476 25.29C41.1476 27.18 40.6948 28.83 39.7891 30.24C38.8834 31.65 37.5687 32.745 35.8449 33.525C34.1504 34.275 32.0761 34.65 29.6219 34.65C28.5409 34.65 27.4746 34.575 26.4228 34.425C25.4002 34.275 24.4069 34.065 23.4427 33.795C22.5078 33.495 21.6167 33.135 20.7695 32.715V26.37C22.2595 27.03 23.7933 27.645 25.371 28.215C26.9779 28.755 28.5702 29.025 30.1478 29.025C31.2288 29.025 32.0907 28.875 32.7334 28.575C33.4054 28.275 33.8875 27.87 34.1796 27.36C34.501 26.85 34.6617 26.265 34.6617 25.605C34.6617 24.795 34.3841 24.105 33.829 23.535C33.3031 22.965 32.5874 22.44 31.6817 21.96C30.776 21.45 29.7388 20.91 28.5702 20.34C27.8398 19.98 27.0509 19.56 26.2037 19.08C25.3564 18.57 24.5383 17.955 23.7495 17.235C22.9899 16.485 22.3618 15.585 21.8651 14.535C21.3684 13.485 21.1201 12.225 21.1201 10.755C21.1201 8.835 21.5437 7.2 22.391 5.85C23.2675 4.47 24.4945 3.42 26.0722 2.7C27.6791 1.98 29.5635 1.62 31.7255 1.62C33.3616 1.62 34.91 1.815 36.3708 2.205C37.8608 2.595 39.4093 3.15 41.0162 3.87L38.8688 9.18C37.4372 8.58 36.1517 8.115 35.0123 7.785C33.8729 7.455 32.7042 7.29 31.5064 7.29C30.6883 7.29 29.9871 7.425 29.4028 7.695C28.8185 7.965 28.3656 8.34 28.0443 8.82C27.7521 9.3 27.606 9.87 27.606 10.53C27.606 11.28 27.8251 11.925 28.2634 12.465C28.7016 12.975 29.359 13.47 30.2355 13.95C31.1119 14.43 32.2075 15 33.5223 15.66C35.1291 16.44 36.4877 17.25 37.5979 18.09C38.7373 18.93 39.6138 19.92 40.2273 21.06C40.8409 22.2 41.1476 23.61 41.1476 25.29Z" fill="white"/>
<path d="M70.4125 18.09C70.4125 20.58 70.1057 22.845 69.4922 24.885C68.9078 26.895 68.0022 28.635 66.7751 30.105C65.5772 31.575 64.0288 32.7 62.1297 33.48C60.2599 34.26 58.0541 34.65 55.5123 34.65C52.9705 34.65 50.7501 34.26 48.8511 33.48C46.9812 32.67 45.4328 31.545 44.2057 30.105C43.0079 28.635 42.1022 26.88 41.4886 24.84C40.9043 22.8 40.6122 20.535 40.6122 18.045C40.6122 14.715 41.1381 11.82 42.1898 9.36C43.2708 6.9 44.9069 4.995 47.0981 3.645C49.3185 2.265 52.1379 1.575 55.5561 1.575C58.9452 1.575 61.7353 2.265 63.9265 3.645C66.1177 4.995 67.7392 6.915 68.791 9.405C69.872 11.865 70.4125 14.76 70.4125 18.09ZM47.5802 18.09C47.5802 20.34 47.8577 22.275 48.4128 23.895C48.9679 25.515 49.8298 26.76 50.9984 27.63C52.1671 28.5 53.6717 28.935 55.5123 28.935C57.4114 28.935 58.9306 28.5 60.07 27.63C61.2387 26.76 62.0859 25.515 62.6118 23.895C63.1669 22.275 63.4445 20.34 63.4445 18.09C63.4445 14.7 62.8309 12.045 61.6038 10.125C60.3768 8.205 58.3609 7.245 55.5561 7.245C53.6863 7.245 52.1671 7.68 50.9984 8.55C49.8298 9.42 48.9679 10.665 48.4128 12.285C47.8577 13.905 47.5802 15.84 47.5802 18.09Z" fill="white"/>
<path d="M85.352 7.29C84.0957 7.29 82.9709 7.545 81.9775 8.055C81.0134 8.565 80.1954 9.3 79.5234 10.26C78.8514 11.19 78.3402 12.33 77.9896 13.68C77.6682 15.03 77.5075 16.545 77.5075 18.225C77.5075 20.505 77.7704 22.455 78.2963 24.075C78.8514 25.665 79.7133 26.88 80.882 27.72C82.0506 28.56 83.5406 28.98 85.352 28.98C86.6375 28.98 87.9084 28.83 89.1647 28.53C90.4502 28.23 91.8379 27.81 93.328 27.27V32.985C91.9548 33.555 90.5963 33.975 89.2523 34.245C87.9084 34.515 86.4038 34.65 84.7385 34.65C81.5247 34.65 78.8661 33.975 76.7625 32.625C74.6882 31.245 73.1543 29.325 72.161 26.865C71.1676 24.375 70.671 21.48 70.671 18.18C70.671 15.75 70.9923 13.53 71.6351 11.52C72.2778 9.48 73.2128 7.725 74.4398 6.255C75.6961 4.785 77.2299 3.645 79.0413 2.835C80.882 2.025 82.9855 1.62 85.352 1.62C86.9004 1.62 88.4489 1.83 89.9973 2.25C91.575 2.64 93.0796 3.18 94.5112 3.87L92.3638 9.405C91.1952 8.835 90.0119 8.34 88.8141 7.92C87.6454 7.5 86.4914 7.29 85.352 7.29Z" fill="white"/>
<path d="M116.367 21.87C116.367 23.91 116.09 25.725 115.534 27.315C115.009 28.905 114.234 30.255 113.212 31.365C112.218 32.445 111.006 33.27 109.574 33.84C108.143 34.38 106.521 34.65 104.71 34.65C103.045 34.65 101.496 34.38 100.065 33.84C98.6622 33.27 97.4497 32.445 96.4271 31.365C95.4046 30.255 94.6011 28.905 94.0168 27.315C93.4617 25.725 93.1842 23.91 93.1842 21.87C93.1842 19.14 93.6516 16.845 94.5865 14.985C95.5214 13.095 96.8654 11.655 98.6183 10.665C100.371 9.675 102.446 9.18 104.841 9.18C107.091 9.18 109.078 9.675 110.801 10.665C112.525 11.655 113.884 13.095 114.877 14.985C115.87 16.845 116.367 19.14 116.367 21.87ZM99.8454 21.87C99.8454 23.49 100.006 24.855 100.327 25.965C100.678 27.045 101.219 27.87 101.949 28.44C102.679 28.98 103.629 29.25 104.798 29.25C105.966 29.25 106.901 28.98 107.602 28.44C108.333 27.87 108.859 27.045 109.18 25.965C109.531 24.855 109.706 23.49 109.706 21.87C109.706 20.25 109.531 18.9 109.18 17.82C108.859 16.74 108.333 15.93 107.602 15.39C106.872 14.85 105.922 14.58 104.754 14.58C103.03 14.58 101.774 15.195 100.985 16.425C100.225 17.625 99.8454 19.44 99.8454 21.87Z" fill="white"/>
<path d="M130.528 9.18C133.099 9.18 135.159 9.9 136.708 11.34C138.256 12.75 139.03 15.03 139.03 18.18V34.2H132.5V19.845C132.5 18.075 132.194 16.755 131.58 15.885C130.967 14.985 129.988 14.535 128.644 14.535C126.657 14.535 125.299 15.24 124.568 16.65C123.838 18.03 123.473 20.025 123.473 22.635V34.2H116.943V9.63H121.939L122.815 12.78H123.166C123.692 11.94 124.335 11.265 125.094 10.755C125.854 10.215 126.701 9.825 127.636 9.585C128.571 9.315 129.535 9.18 130.528 9.18Z" fill="white"/>
<path d="M157.622 26.91C157.622 28.56 157.242 29.97 156.482 31.14C155.722 32.28 154.583 33.15 153.064 33.75C151.545 34.35 149.66 34.65 147.411 34.65C145.745 34.65 144.314 34.53 143.116 34.29C141.918 34.08 140.72 33.72 139.522 33.21V27.675C140.808 28.275 142.195 28.77 143.685 29.16C145.175 29.55 146.49 29.745 147.63 29.745C148.915 29.745 149.821 29.55 150.347 29.16C150.902 28.77 151.179 28.26 151.179 27.63C151.179 27.21 151.063 26.835 150.829 26.505C150.624 26.175 150.157 25.8 149.426 25.38C148.696 24.96 147.557 24.42 146.008 23.76C144.518 23.1 143.291 22.455 142.327 21.825C141.363 21.165 140.647 20.385 140.18 19.485C139.712 18.555 139.478 17.4 139.478 16.02C139.478 13.74 140.34 12.03 142.064 10.89C143.788 9.75 146.081 9.18 148.944 9.18C150.434 9.18 151.851 9.33 153.195 9.63C154.539 9.93 155.927 10.425 157.359 11.115L155.386 15.93C154.598 15.57 153.838 15.255 153.108 14.985C152.377 14.715 151.661 14.505 150.96 14.355C150.288 14.205 149.587 14.13 148.857 14.13C147.893 14.13 147.162 14.265 146.666 14.535C146.198 14.805 145.964 15.21 145.964 15.75C145.964 16.14 146.081 16.5 146.315 16.83C146.578 17.13 147.06 17.46 147.761 17.82C148.492 18.18 149.558 18.66 150.96 19.26C152.333 19.83 153.517 20.43 154.51 21.06C155.503 21.66 156.263 22.425 156.789 23.355C157.344 24.255 157.622 25.44 157.622 26.91Z" fill="white"/>
<path d="M179.843 9.63V34.2H174.847L173.971 31.05H173.62C173.124 31.89 172.481 32.58 171.692 33.12C170.932 33.63 170.085 34.005 169.15 34.245C168.215 34.515 167.251 34.65 166.258 34.65C164.563 34.65 163.073 34.335 161.788 33.705C160.502 33.075 159.509 32.1 158.808 30.78C158.107 29.46 157.756 27.75 157.756 25.65V9.63H164.286V23.985C164.286 25.725 164.593 27.045 165.206 27.945C165.82 28.845 166.798 29.295 168.142 29.295C169.486 29.295 170.523 28.98 171.254 28.35C172.013 27.72 172.539 26.805 172.832 25.605C173.153 24.405 173.314 22.935 173.314 21.195V9.63H179.843Z" fill="white"/>
<path d="M188.399 34.2H181.869V0H188.399V34.2Z" fill="white"/>
<path d="M200.481 29.295C201.211 29.295 201.912 29.22 202.584 29.07C203.256 28.92 203.928 28.74 204.6 28.53V33.525C203.899 33.825 203.022 34.08 201.971 34.29C200.948 34.53 199.823 34.65 198.596 34.65C197.165 34.65 195.879 34.41 194.74 33.93C193.63 33.45 192.738 32.625 192.066 31.455C191.424 30.255 191.102 28.605 191.102 26.505V14.67H187.991V11.835L191.584 9.585L193.469 4.41H197.632V9.63H204.337V14.67H197.632V26.505C197.632 27.435 197.895 28.14 198.421 28.62C198.947 29.07 199.633 29.295 200.481 29.295Z" fill="white"/>
<path d="M211.112 9.63V34.2H204.582V9.63H211.112ZM207.869 0C208.833 0 209.666 0.24 210.367 0.720001C211.068 1.17 211.419 2.025 211.419 3.285C211.419 4.515 211.068 5.37 210.367 5.85C209.666 6.33 208.833 6.57 207.869 6.57C206.876 6.57 206.029 6.33 205.327 5.85C204.655 5.37 204.319 4.515 204.319 3.285C204.319 2.025 204.655 1.17 205.327 0.720001C206.029 0.24 206.876 0 207.869 0Z" fill="white"/>
<path d="M226.7 9.18C229.271 9.18 231.33 9.9 232.879 11.34C234.427 12.75 235.202 15.03 235.202 18.18V34.2H228.672V19.845C228.672 18.075 228.365 16.755 227.752 15.885C227.138 14.985 226.159 14.535 224.815 14.535C222.829 14.535 221.47 15.24 220.74 16.65C220.009 18.03 219.644 20.025 219.644 22.635V34.2H213.114V9.63H218.11L218.987 12.78H219.337C219.863 11.94 220.506 11.265 221.266 10.755C222.025 10.215 222.872 9.825 223.807 9.585C224.742 9.315 225.706 9.18 226.7 9.18Z" fill="white"/>
<path d="M244.853 9.18C246.314 9.18 247.628 9.48 248.797 10.08C249.966 10.68 250.959 11.58 251.777 12.78H251.952L252.478 9.63H258V34.245C258 36.585 257.547 38.55 256.641 40.14C255.765 41.73 254.436 42.93 252.653 43.74C250.871 44.58 248.665 45 246.036 45C244.342 45 242.764 44.895 241.303 44.685C239.871 44.475 238.469 44.1 237.096 43.56V38.205C238.089 38.625 239.083 38.97 240.076 39.24C241.099 39.54 242.136 39.75 243.187 39.87C244.268 40.02 245.349 40.095 246.43 40.095C248.125 40.095 249.381 39.63 250.199 38.7C251.047 37.77 251.47 36.375 251.47 34.515V34.02C251.47 33.51 251.485 32.985 251.514 32.445C251.572 31.905 251.616 31.425 251.646 31.005H251.47C250.652 32.295 249.673 33.225 248.534 33.795C247.395 34.365 246.109 34.65 244.677 34.65C241.844 34.65 239.623 33.54 238.016 31.32C236.439 29.07 235.65 25.95 235.65 21.96C235.65 19.26 236.015 16.965 236.745 15.075C237.476 13.155 238.528 11.7 239.901 10.71C241.303 9.69 242.954 9.18 244.853 9.18ZM246.913 14.625C245.89 14.625 245.028 14.91 244.327 15.48C243.655 16.02 243.144 16.845 242.793 17.955C242.472 19.035 242.311 20.4 242.311 22.05C242.311 24.51 242.691 26.355 243.45 27.585C244.21 28.785 245.393 29.385 247 29.385C247.847 29.385 248.578 29.28 249.191 29.07C249.805 28.83 250.302 28.455 250.681 27.945C251.09 27.405 251.397 26.715 251.602 25.875C251.806 25.035 251.908 24.015 251.908 22.815V22.005C251.908 20.235 251.733 18.81 251.383 17.73C251.032 16.65 250.491 15.87 249.761 15.39C249.031 14.88 248.081 14.625 246.913 14.625Z" fill="white"/>
</svg>
