<svg width="36" height="31" viewBox="0 0 36 31" fill="none" xmlns="http://www.w3.org/2000/svg">
<path d="M25.8906 0.125C22.6641 0.125 19.8391 1.54719 18.0781 3.95113C16.3172 1.54719 13.4922 0.125 10.2656 0.125C7.69723 0.127967 5.23486 1.17508 3.41873 3.03662C1.60259 4.89815 0.58102 7.42208 0.578125 10.0547C0.578125 21.2656 16.7953 30.3401 17.4859 30.7148C17.668 30.8152 17.8714 30.8677 18.0781 30.8677C18.2848 30.8677 18.4883 30.8152 18.6703 30.7148C19.3609 30.3401 35.5781 21.2656 35.5781 10.0547C35.5752 7.42208 34.5537 4.89815 32.7375 3.03662C30.9214 1.17508 28.459 0.127967 25.8906 0.125Z" stroke="#37085B" stroke-width="4"/>
</svg>
