<svg width="26" height="26" viewBox="0 0 26 26" fill="none" xmlns="http://www.w3.org/2000/svg">
<path d="M10.5208 0.25C4.86099 0.25 0.25 4.86099 0.25 10.5208C0.25 16.1807 4.86099 20.7917 10.5208 20.7917C12.9691 20.7917 15.2197 19.9268 16.9871 18.4896L23.9363 25.4387C24.0342 25.5407 24.1515 25.6221 24.2812 25.6782C24.411 25.7343 24.5506 25.7639 24.692 25.7653C24.8333 25.7668 24.9735 25.74 25.1044 25.6865C25.2353 25.6331 25.3542 25.5541 25.4542 25.4542C25.5541 25.3542 25.6331 25.2353 25.6865 25.1044C25.74 24.9735 25.7668 24.8333 25.7653 24.692C25.7639 24.5506 25.7343 24.411 25.6782 24.2812C25.6221 24.1515 25.5407 24.0342 25.4387 23.9363L18.4896 16.9871C19.9268 15.2197 20.7917 12.9691 20.7917 10.5208C20.7917 4.86099 16.1807 0.25 10.5208 0.25ZM10.5208 2.375C15.0322 2.375 18.6667 6.00943 18.6667 10.5208C18.6667 12.7185 17.7998 14.704 16.3936 16.1667C16.307 16.2305 16.2305 16.307 16.1667 16.3936C14.704 17.7998 12.7185 18.6667 10.5208 18.6667C6.00942 18.6667 2.375 15.0322 2.375 10.5208C2.375 6.00943 6.00942 2.375 10.5208 2.375Z" fill="#041058"/>
</svg>
