<svg width="21" height="21" viewBox="0 0 21 21" fill="none" xmlns="http://www.w3.org/2000/svg">
<path d="M8.96875 2.625C5.47296 2.625 2.625 5.47297 2.625 8.96875C2.625 12.4645 5.47296 15.3125 8.96875 15.3125C10.4809 15.3125 11.871 14.7783 12.9626 13.8906L17.2548 18.1827C17.3152 18.2457 17.3877 18.296 17.4678 18.3306C17.548 18.3653 17.6342 18.3836 17.7215 18.3845C17.8088 18.3854 17.8954 18.3688 17.9763 18.3358C18.0571 18.3028 18.1305 18.254 18.1923 18.1923C18.254 18.1305 18.3028 18.0571 18.3358 17.9763C18.3688 17.8954 18.3854 17.8088 18.3845 17.7215C18.3836 17.6342 18.3653 17.548 18.3306 17.4678C18.296 17.3877 18.2457 17.3152 18.1827 17.2548L13.8906 12.9626C14.7783 11.871 15.3125 10.4809 15.3125 8.96875C15.3125 5.47297 12.4645 2.625 8.96875 2.625ZM8.96875 3.9375C11.7552 3.9375 14 6.18229 14 8.96875C14 10.3261 13.4646 11.5525 12.5961 12.4559C12.5425 12.4953 12.4953 12.5425 12.4559 12.5961C11.5525 13.4646 10.3261 14 8.96875 14C6.18229 14 3.9375 11.7552 3.9375 8.96875C3.9375 6.18229 6.18229 3.9375 8.96875 3.9375Z" fill="#8E8E8E"/>
</svg>
