<svg width="38" height="21" viewBox="0 0 38 21" fill="none" xmlns="http://www.w3.org/2000/svg">
<path d="M11.3933 14.8632L11.3933 14.8632C9.76208 14.2699 7.94938 13.8087 6.29581 13.388C5.47157 13.1783 4.68687 12.9786 3.98388 12.7776C2.90217 12.4684 2.01923 12.1593 1.41355 11.8119C0.791364 11.455 0.611328 11.1475 0.611328 10.8887C0.611328 10.7675 0.693449 10.5088 0.966374 10.0973C1.22546 9.70671 1.61096 9.24494 2.10277 8.73618C3.08469 7.7204 4.45011 6.55852 5.96097 5.45971C7.47129 4.36129 9.11295 3.3361 10.6434 2.58786C12.1901 1.83173 13.5632 1.38867 14.5558 1.38867C15.6117 1.38867 16.1534 1.83612 16.6936 2.35903C16.7406 2.4046 16.7886 2.45198 16.8376 2.50049C17.3396 2.99663 17.961 3.61089 19.0002 3.61089C20.0284 3.61089 20.5873 3.00524 21.0338 2.52141C21.09 2.46053 21.1444 2.40158 21.1978 2.346C21.4508 2.0823 21.7037 1.85184 22.0381 1.68135C22.3684 1.51298 22.8076 1.38867 23.4447 1.38867C24.4373 1.38867 25.8104 1.83173 27.357 2.58786C28.8875 3.3361 30.5291 4.36129 32.0395 5.45971C33.5503 6.55852 34.9157 7.7204 35.8977 8.73618C36.3895 9.24494 36.775 9.70671 37.0341 10.0973C37.307 10.5088 37.3891 10.7675 37.3891 10.8887C37.3891 11.0485 37.3158 11.3285 37.1132 11.732C36.917 12.1225 36.6234 12.5825 36.2425 13.0876C35.4814 14.0969 34.3976 15.2516 33.126 16.3425C30.5591 18.5447 27.3427 20.3887 24.5558 20.3887C23.8996 20.3887 23.093 20.1876 22.1385 19.8255C21.1899 19.4656 20.135 18.9625 18.9893 18.3899C18.6042 18.1974 18.2092 17.9972 17.8055 17.7926C15.8238 16.7882 13.6341 15.6783 11.3933 14.8632Z" fill="#F0E3FF" stroke="#2B2B2B"/>
<path d="M25.8244 13.7475L25.8243 13.7475C25.593 13.6704 25.1242 13.4583 24.4553 13.1556C24.4065 13.1335 24.3566 13.111 24.3057 13.0879C23.5754 12.7577 22.6652 12.3491 21.6836 11.9517C19.7433 11.1662 17.4413 10.3885 15.6664 10.3885C13.4914 10.3885 11.8024 10.7237 10.4037 11.0012C10.1013 11.0612 9.81257 11.1185 9.53539 11.1692C8.38837 11.3787 7.44716 11.4744 6.49629 11.2368C7.96325 10.9914 9.03779 10.4808 10.1401 9.95706C10.4208 9.82365 10.7034 9.68939 10.9947 9.55844C12.6952 8.79401 14.8428 8.05518 18.9997 8.05518C23.2245 8.05518 25.3743 8.81836 27.0901 9.59726C27.3538 9.71699 27.6106 9.83902 27.8657 9.96025C29.1531 10.572 30.3979 11.1636 32.28 11.338C31.3803 12.2107 30.4955 12.9809 29.5349 13.4716C28.4448 14.0285 27.2571 14.2249 25.8244 13.7475ZM5.18497 10.9198L5.32922 11.087L5.18497 10.9198Z" fill="#F0E3FF" stroke="#2B2B2B"/>
<path d="M10.6598 10.398C10.4977 10.256 10.3635 10.0858 10.2632 9.89623C11.1382 9.48232 12.0457 9.06421 13.2414 8.72835C14.6329 8.33751 16.4293 8.05518 18.9997 8.05518C21.5701 8.05518 23.3665 8.33751 24.7579 8.72835C25.9536 9.06419 26.8611 9.48227 27.736 9.89616C27.6356 10.0856 27.5013 10.2557 27.3393 10.3977L27.6688 10.7738L27.3393 10.3977C27.1303 10.5808 26.8811 10.712 26.6119 10.7806C25.3941 11.0907 23.0244 11.4996 18.9997 11.4996C14.975 11.4996 12.6052 11.0907 11.3875 10.7806L11.3872 10.7806C11.118 10.7122 10.8688 10.5811 10.6598 10.398Z" fill="#E7E7E7" stroke="#2B2B2B"/>
</svg>
