<svg width="40" height="40" viewBox="0 0 40 40" fill="none" xmlns="http://www.w3.org/2000/svg">
<path d="M20 28.3333C20.4722 28.3333 20.8683 28.1733 21.1883 27.8533C21.5083 27.5333 21.6678 27.1378 21.6667 26.6667V21.6667H26.6667C27.1389 21.6667 27.535 21.5067 27.855 21.1867C28.175 20.8667 28.3344 20.4711 28.3333 20C28.3333 19.5278 28.1733 19.1317 27.8533 18.8117C27.5333 18.4917 27.1378 18.3322 26.6667 18.3333H21.6667V13.3333C21.6667 12.8611 21.5067 12.465 21.1867 12.145C20.8667 11.825 20.4711 11.6656 20 11.6667C19.5278 11.6667 19.1317 11.8267 18.8117 12.1467C18.4917 12.4667 18.3322 12.8622 18.3333 13.3333V18.3333H13.3333C12.8611 18.3333 12.465 18.4933 12.145 18.8133C11.825 19.1333 11.6656 19.5289 11.6667 20C11.6667 20.4722 11.8267 20.8683 12.1467 21.1883C12.4667 21.5083 12.8622 21.6678 13.3333 21.6667H18.3333V26.6667C18.3333 27.1389 18.4933 27.535 18.8133 27.855C19.1333 28.175 19.5289 28.3344 20 28.3333ZM8.33334 35C7.41667 35 6.63167 34.6733 5.97834 34.02C5.325 33.3667 4.99889 32.5822 5 31.6667V8.33334C5 7.41667 5.32667 6.63167 5.98 5.97834C6.63334 5.325 7.41778 4.99889 8.33334 5H31.6667C32.5833 5 33.3683 5.32667 34.0217 5.98C34.675 6.63334 35.0011 7.41778 35 8.33334V31.6667C35 32.5833 34.6733 33.3683 34.02 34.0217C33.3667 34.675 32.5822 35.0011 31.6667 35H8.33334Z" fill="#37085B"/>
</svg>
