<svg width="22" height="24" viewBox="0 0 22 24" fill="none" xmlns="http://www.w3.org/2000/svg">
<path d="M11 0.25C6.90356 0.25 3.5625 3.59106 3.5625 7.6875C3.5625 10.2317 4.85742 12.4895 6.81641 13.8301C3.01465 15.4487 0.375 19.2256 0.375 23.625H2.5C2.5 18.8811 6.2561 15.125 11 15.125C15.7439 15.125 19.5 18.8811 19.5 23.625H21.625C21.625 19.2256 18.9854 15.4487 15.1836 13.8301C17.1426 12.4895 18.4375 10.2317 18.4375 7.6875C18.4375 3.59106 15.0964 0.25 11 0.25ZM11 2.375C13.9468 2.375 16.3125 4.74072 16.3125 7.6875C16.3125 10.6343 13.9468 13 11 13C8.05322 13 5.6875 10.6343 5.6875 7.6875C5.6875 4.74072 8.05322 2.375 11 2.375Z" fill="#37085B"/>
</svg>
