<svg version="1.2" xmlns="http://www.w3.org/2000/svg" viewBox="0 0 48 48" width="48" height="48">
	<title>forum_FILL0_wght400_GRAD0_opsz48-svg</title>
	<style>
		.s0 { fill: #053596 } 
		.s1 { fill: #253596 } 
	</style>
	<path id="Layer" fill-rule="evenodd" class="s0" d="m4 34v-27.9q0-0.7 0.7-1.4 0.6-0.7 1.3-0.7h25.9q0.8 0 1.5 0.7 0.6 0.6 0.6 1.4v17.8q0 0.7-0.6 1.4-0.7 0.7-1.4 0.7h-20zm10.1 2q-0.7 0-1.4-0.7-0.7-0.7-0.7-1.4v-4.9h25v-17h5q0.7 0 1.4 0.7 0.6 0.7 0.6 1.4v29.8l-8-7.9zm17-29h-24v19.7l3.7-3.7h20.3zm-24 0v19.7z"/>
	<path id="Layer" fill-rule="evenodd" class="s1" d="m4 33.5v-27.8q0-0.8 0.7-1.5 0.6-0.7 1.6-0.7h25.4q0.9 0 1.6 0.7 0.7 0.7 0.7 1.6v19.4q0 0.9-0.7 1.6-0.7 0.7-1.6 0.7h-21.7zm2.3-5.4l2.8-2.9h22.6v-19.4h-25.5zm5.7-7.3q-0.4-0.4-0.4-0.9v-9q0-0.5 0.4-0.9 0.3-0.4 0.8-0.4h9.3q0.5 0 0.9 0.4 0.3 0.4 0.3 0.9v3.5l3.3-3.3v8.6l-3.3-3.3v3.5q0 0.5-0.3 0.9-0.4 0.4-0.9 0.4h-9.3q-0.5 0-0.8-0.4zm-5.7-15.1v22.4z"/>
</svg>