<svg width="17" height="17" viewBox="0 0 17 17" fill="none" xmlns="http://www.w3.org/2000/svg">
<path d="M15.7107 3.06436C16.4205 3.06436 16.995 3.66829 16.995 4.40641L17 12.4574C17 13.1989 16.4225 13.8008 15.7094 13.8008H14.4201V16.4849L11.839 13.8008H5.3862C4.67639 13.8008 4.09564 13.1969 4.09564 12.4587V4.40641C4.09564 3.66829 4.67639 3.06436 5.3862 3.06436H15.7107Z" fill="#6839b5"/>
<path d="M2.2893 1C1.57949 1 1.00504 1.60392 1.00504 2.34205L1 10.3931C1 11.1345 1.57753 11.7364 2.29056 11.7364H3.57986V14.4205L6.16099 11.7364H12.6138C13.3236 11.7364 13.9044 11.1325 13.9044 10.3944V2.34205C13.9044 1.60392 13.3236 1 12.6138 1H2.2893ZM4.22514 4.35513H8.74211V5.76927L10.678 4.35513V8.38129L8.74211 6.96716V8.38129H4.22514V4.35513Z" fill="white" stroke="#6839b5"/>
</svg>
