<svg width="37" height="37" viewBox="0 0 37 37" fill="none" xmlns="http://www.w3.org/2000/svg">
<path d="M11.6693 34.2117C11.6987 32.978 11.7712 31.425 11.9435 30.4439C12.1315 29.3825 12.4957 28.1056 12.7758 27.2067C12.9951 26.5017 12.8013 25.7341 12.2803 25.2112L7.96417 20.8696C9.54454 17.8694 11.3854 15.4665 13.4318 13.4318C15.4665 11.3854 17.8694 9.54454 20.8696 7.96417L25.2132 12.2803C25.738 12.8013 26.5037 12.9951 27.2087 12.7758C28.1056 12.4977 29.3844 12.1315 30.4458 11.9435C31.427 11.7712 32.978 11.6987 34.2137 11.6693C35.279 11.6439 36.125 10.7744 36.125 9.70708V2.83333C36.125 1.97558 35.4827 0.875 34.1667 0.875C25.2778 0.875 16.7884 4.47833 10.6001 10.6001C4.47833 16.7884 0.875 25.2778 0.875 34.1667C0.875 35.4827 1.97558 36.125 2.83333 36.125H9.70708C10.7744 36.125 11.6439 35.279 11.6693 34.2117Z" fill="#253596"/>
</svg>
