<svg width="41" height="41" viewBox="0 0 41 41" fill="none" xmlns="http://www.w3.org/2000/svg">
<rect width="41" height="41" rx="2" fill="white"/>
<path d="M10.7465 30.5947V26.27C10.758 26.27 10.8275 26.2758 10.9548 26.2874C11.0821 26.2991 11.1689 26.3049 11.2152 26.3049C11.2615 26.3049 11.3483 26.3107 11.4756 26.3223C11.6145 26.3223 11.7187 26.3281 11.7881 26.3397C11.8691 26.3397 11.9733 26.3456 12.1006 26.3572C12.2395 26.3572 12.3553 26.363 12.4478 26.3746C12.552 26.3746 12.662 26.3746 12.7777 26.3746C12.905 26.3746 13.0265 26.3746 13.1423 26.3746C14.0451 26.3746 14.9015 26.1712 15.7117 25.7643C16.5219 25.3574 17.2453 24.7761 17.8818 24.0204C18.5184 23.2648 19.0219 22.2999 19.3922 21.1257C19.7742 19.9399 19.9651 18.6262 19.9651 17.1846C19.9651 14.7897 19.3864 12.9936 18.229 11.7962C17.0716 10.5987 15.3703 10 13.1249 10C12.3263 10 11.3078 10.0291 10.0694 10.0872C8.83098 10.1337 7.90507 10.1569 7.29165 10.1569H5V30.5947H10.7465ZM14.2707 16.4173V18.9982C14.2707 20.1608 14.0161 21.0501 13.5069 21.6663C13.0092 22.2824 12.3032 22.5905 11.3888 22.5905H10.7465V13.5225H11.5798C12.4478 13.5225 13.1133 13.7899 13.5763 14.3247C14.0393 14.8595 14.2707 15.557 14.2707 16.4173Z" fill="#673AB7"/>
<path d="M28.1459 27.7348H27.0348V13.1738H28.3369C29.1471 13.1738 29.7721 13.6737 30.2119 14.6735C30.6517 15.6733 30.8716 17.0916 30.8716 18.9284V20.6897C30.8716 23.2008 30.6343 25.0028 30.1598 26.0956C29.6968 27.1884 29.0255 27.7348 28.1459 27.7348ZM28.6841 30.7168C29.9572 30.7168 31.0915 30.4959 32.0869 30.0541C33.0822 29.6123 33.8808 29.0369 34.4827 28.3277C35.0845 27.6186 35.5822 26.7757 35.9757 25.7992C36.3692 24.811 36.6354 23.8286 36.7743 22.8521C36.9248 21.8755 37 20.8467 37 19.7655C37 16.5801 36.3576 14.1561 35.0729 12.4937C33.7998 10.8312 31.6875 10 28.7362 10C28.2154 10 27.4978 10.0233 26.5834 10.0698C25.6691 10.1163 24.8242 10.1453 24.0487 10.1569H21.2883V30.5947H24.0487C24.9746 30.5947 25.8716 30.6121 26.7397 30.647C27.6193 30.6935 28.2674 30.7168 28.6841 30.7168Z" fill="#673AB7"/>
</svg>
